<svg xmlns="http://www.w3.org/2000/svg" viewBox="0 0 32 32">
  <!-- Background -->
  <rect width="32" height="32" rx="6" fill="#18181c"/>

  <!-- Left page of open Bible -->
  <path d="M3 7 C8 6.5 12 6.5 15 7 L15 26 C12 25.5 8 25.5 3 26 Z" fill="#f0ede6"/>
  <!-- Right page -->
  <path d="M17 7 C20 6.5 24 6.5 29 7 L29 26 C24 25.5 20 25.5 17 26 Z" fill="#f0ede6"/>
  <!-- Spine -->
  <rect x="14.5" y="5.5" width="3" height="21" rx="0.5" fill="#8a6e2f"/>
  <!-- Book bottom edge -->
  <path d="M3 26 C8 25.5 12 25.5 14.5 26.5 L17.5 26.5 C20 25.5 24 25.5 29 26 L29 27 C24 26.5 20 26.5 17.5 27.5 L14.5 27.5 C12 26.5 8 26.5 3 27 Z" fill="#8a6e2f" opacity="0.7"/>

  <!-- Cross on right page (gold) -->
  <rect x="21.5" y="9.5" width="2.5" height="13" rx="0.7" fill="#c9a84c"/>
  <rect x="17.5" y="13.5" width="10.5" height="2.5" rx="0.7" fill="#c9a84c"/>

  <!-- Text lines on left page -->
  <rect x="5" y="11" width="8" height="1" rx="0.5" fill="#5a5855" opacity="0.7"/>
  <rect x="5" y="14" width="8" height="1" rx="0.5" fill="#5a5855" opacity="0.7"/>
  <rect x="5" y="17" width="8" height="1" rx="0.5" fill="#5a5855" opacity="0.7"/>
  <rect x="5" y="20" width="5.5" height="1" rx="0.5" fill="#5a5855" opacity="0.7"/>
</svg>
